<svg width="24" height="24" viewBox="0 0 24 24" fill="none" xmlns="http://www.w3.org/2000/svg">
<g clip-path="url(#clip0_289_200)">
<path d="M12 2.163C8.796 2.163 8.416 2.175 7.15 2.233C3.898 2.381 2.379 3.924 2.231 7.152C2.173 8.417 2.162 8.797 2.162 12.001C2.162 15.206 2.174 15.585 2.231 16.85C2.38 20.075 3.895 21.621 7.15 21.769C8.416 21.827 8.794 21.839 12 21.839C15.204 21.839 15.584 21.827 16.849 21.769C20.109 21.62 21.62 20.07 21.768 16.849C21.826 15.584 21.838 15.205 21.838 12C21.838 8.796 21.825 8.417 21.768 7.151C21.619 3.924 20.104 2.38 16.849 2.232C15.583 2.175 15.204 2.163 12 2.163ZM12 0C15.259 0 15.667 0.014 16.947 0.072C21.305 0.272 23.727 2.69 23.927 7.052C23.986 8.333 24 8.741 24 12C24 15.259 23.986 15.668 23.928 16.948C23.728 21.306 21.31 23.728 16.948 23.928C15.667 23.986 15.259 24 12 24C8.741 24 8.332 23.986 7.052 23.928C2.698 23.728 0.27 21.31 0.073 16.948C0.0139999 15.668 0 15.259 0 12C0 8.741 0.0139999 8.333 0.0720005 7.053C0.268 2.699 2.689 0.273 7.051 0.073C8.332 0.014 8.741 0 12 0V0ZM12 5.838C15.403 5.838 18.162 8.597 18.162 12C18.162 15.403 15.403 18.163 12 18.163C8.597 18.163 5.838 15.404 5.838 12C5.838 8.597 8.597 5.838 12 5.838ZM12 16C14.209 16 16 14.21 16 12C16 9.791 14.209 8 12 8C9.791 8 8 9.791 8 12C8 14.21 9.791 16 12 16ZM5.594 4.155C6.39 4.155 7.035 4.8 7.035 5.595C7.035 6.39 6.39 7.035 5.594 7.035C4.799 7.035 4.155 6.39 4.155 5.595C4.155 4.8 4.799 4.155 5.594 4.155Z" fill="#6D6875"/>
</g>
<defs>
<clipPath id="clip0_289_200">
<rect width="24" height="24" fill="white" transform="matrix(-1 0 0 1 24 0)"/>
</clipPath>
</defs>
</svg>
